<?xml version="1.0" standalone="no"?>
<!DOCTYPE svg PUBLIC "-//W3C//DTD SVG 20010904//EN"
 "http://www.w3.org/TR/2001/REC-SVG-20010904/DTD/svg10.dtd">
<svg version="1.0" xmlns="http://www.w3.org/2000/svg"
 width="200.000000pt" height="200.000000pt" viewBox="0 0 200.000000 200.000000"
 preserveAspectRatio="xMidYMid meet">
<metadata>
Created by potrace 1.14, written by Peter Selinger 2001-2017
</metadata>
<g transform="translate(0.000000,200.000000) scale(0.100000,-0.100000)"
fill="#000000" stroke="none">
<path d="M850 1896 c0 -2 33 -23 73 -45 39 -22 97 -55 127 -72 30 -17 127 -72
215 -121 88 -50 162 -94 165 -99 3 -4 5 -172 5 -373 0 -201 3 -366 6 -366 3 0
47 23 98 51 l91 51 0 377 0 376 -106 60 c-59 33 -118 67 -133 75 -14 8 -56 32
-93 53 l-66 37 -191 0 c-105 0 -191 -2 -191 -4z"/>
<path d="M543 1772 l-201 -117 -95 -165 c-52 -91 -93 -167 -91 -169 1 -1 136
74 298 168 163 94 298 171 300 171 2 0 66 -37 142 -82 288 -169 489 -286 491
-284 2 1 5 163 4 197 -1 24 -21 38 -168 124 -93 54 -184 107 -203 118 -19 11
-88 50 -152 88 -64 38 -118 69 -120 69 -2 -1 -94 -54 -205 -118z"/>
<path d="M429 1412 l-316 -186 0 -235 0 -236 48 -83 c27 -46 49 -85 49 -86 0
-2 22 -41 50 -87 l50 -84 0 350 0 350 93 54 c50 30 195 114 320 187 l229 132
-95 56 c-52 31 -99 56 -104 55 -4 0 -150 -85 -324 -187z"/>
<path d="M1688 1213 l-3 -347 -135 -82 c-119 -73 -233 -140 -365 -214 -92 -52
-125 -72 -125 -78 0 -4 42 -31 93 -60 88 -51 93 -53 117 -38 14 8 158 93 321
188 l296 173 1 235 c0 253 3 235 -56 335 -9 17 -44 76 -76 133 -32 56 -60 102
-62 102 -2 0 -5 -156 -6 -347z"/>
<path d="M1103 1354 c-19 -19 -34 -25 -62 -23 -20 1 -51 -1 -69 -5 -28 -7 -36
-4 -53 18 -27 34 -66 35 -79 1 -5 -13 -11 -50 -14 -82 -2 -32 -11 -74 -19 -93
-24 -56 -66 -212 -73 -271 -3 -30 -10 -58 -14 -64 -15 -20 -19 -62 -9 -98 15
-54 63 -87 125 -86 58 0 84 -5 113 -23 18 -11 23 -11 30 1 10 15 91 24 91 10
0 -12 37 -11 45 1 3 6 15 10 26 10 37 0 99 40 126 82 24 36 28 52 30 125 2 75
-3 97 -38 200 -22 64 -47 129 -55 144 -8 15 -14 49 -14 74 0 52 -23 105 -46
105 -8 0 -26 -12 -41 -26z m-183 -42 c0 -10 13 -11 53 -6 28 4 53 8 55 9 2 2
16 0 31 -5 23 -6 30 -3 47 21 10 16 27 29 36 29 17 0 23 -19 32 -105 2 -22 15
-67 29 -99 l25 -59 -24 -24 c-29 -29 -23 -47 11 -31 34 15 43 2 17 -22 -12
-12 -22 -25 -22 -30 0 -14 27 -13 36 1 4 8 9 8 17 0 8 -8 4 -17 -11 -34 -25
-26 -19 -42 9 -26 21 11 20 13 23 -56 4 -86 -35 -163 -97 -191 -20 -9 -39 -15
-42 -13 -2 3 2 23 10 44 17 47 18 65 6 65 -5 0 -14 -20 -20 -44 -6 -24 -20
-54 -31 -67 -28 -34 -40 -11 -34 65 3 43 1 57 -7 49 -6 -6 -12 -35 -13 -64 -2
-53 -2 -54 -33 -56 -27 -1 -32 2 -31 20 2 56 -3 97 -12 97 -6 0 -9 -23 -6 -59
5 -75 -6 -96 -34 -61 -11 14 -25 44 -31 68 -6 23 -15 42 -20 42 -12 0 -11 -18
6 -65 8 -21 13 -40 12 -42 -10 -9 -47 13 -47 27 0 10 -19 33 -42 52 -24 18
-48 40 -55 48 -11 13 -12 13 -13 -2 0 -9 17 -30 38 -45 41 -31 52 -43 52 -59
0 -40 -81 -8 -104 41 -20 41 -20 69 -1 89 9 9 15 33 15 61 0 36 3 46 14 42 22
-9 28 5 11 23 -22 24 -9 53 17 39 33 -18 42 -5 14 21 -14 14 -26 31 -26 38 0
14 26 16 35 2 8 -13 35 -13 35 0 0 6 -12 21 -26 33 l-25 22 21 59 c12 32 24
85 25 117 4 76 18 95 51 71 13 -9 24 -23 24 -30z"/>
<path d="M1054 1266 c-3 -8 -4 -21 -1 -28 3 -8 6 -6 6 5 1 10 6 15 11 12 6 -3
10 -2 10 4 0 17 -20 23 -26 7z"/>
<path d="M936 1255 c-3 -8 -1 -15 4 -15 6 0 10 7 10 15 0 8 -2 15 -4 15 -2 0
-6 -7 -10 -15z"/>
<path d="M960 1254 c0 -8 5 -12 10 -9 6 4 8 11 5 16 -9 14 -15 11 -15 -7z"/>
<path d="M1062 1216 c-30 -39 -13 -81 37 -91 26 -5 61 26 61 53 0 26 -21 50
-51 57 -21 5 -31 1 -47 -19z m68 -17 c0 -24 -23 -21 -28 4 -2 10 3 17 12 17
10 0 16 -9 16 -21z m-35 -38 c3 -5 1 -12 -5 -16 -5 -3 -10 1 -10 9 0 18 6 21
15 7z"/>
<path d="M890 1210 c-11 -11 -20 -25 -20 -31 0 -21 22 -50 43 -58 24 -9 67 6
68 23 0 6 2 19 4 28 4 22 -30 58 -55 58 -11 0 -29 -9 -40 -20z m68 -17 c-4
-22 -22 -20 -26 1 -2 10 3 16 13 16 10 0 15 -7 13 -17z m-33 -43 c3 -5 -1 -10
-10 -10 -9 0 -13 5 -10 10 3 6 8 10 10 10 2 0 7 -4 10 -10z"/>
<path d="M993 1123 c-21 -7 -15 -30 9 -36 24 -7 51 10 45 27 -4 11 -33 16 -54
9z"/>
<path d="M933 1090 c-13 -5 -23 -12 -23 -15 0 -4 10 -4 23 0 21 6 21 6 -3 -14
-14 -11 -20 -21 -15 -20 18 0 42 24 42 42 0 9 -1 17 -1 16 -1 0 -11 -4 -23 -9z"/>
<path d="M1084 1085 c22 -17 40 -20 32 -6 -3 5 -16 11 -28 14 -22 6 -22 5 -4
-8z"/>
<path d="M1066 1055 c25 -19 40 -19 24 0 -7 8 -20 15 -28 15 -13 0 -12 -3 4
-15z"/>
<path d="M470 1154 c-41 -25 -81 -49 -89 -53 -12 -7 -14 -71 -15 -376 -1 -232
3 -373 9 -380 5 -7 95 -61 200 -120 l190 -106 140 0 c77 0 167 0 199 0 l59 1
-44 24 c-24 13 -93 52 -154 86 -60 34 -135 76 -165 93 -30 17 -95 54 -145 83
l-90 52 -2 348 c-2 423 -1 394 -10 393 -5 0 -42 -20 -83 -45z"/>
<path d="M610 588 l0 -114 168 -97 c92 -53 178 -104 192 -112 14 -8 83 -49
154 -89 l129 -75 46 27 c26 15 117 67 203 117 l157 90 83 144 c124 216 114
195 81 178 -15 -8 -149 -85 -296 -171 -148 -86 -270 -156 -272 -156 -3 0 -546
312 -612 352 l-33 20 0 -114z"/>
</g>
</svg>
